<svg width="168" height="168" viewBox="0 0 168 168" fill="none" xmlns="http://www.w3.org/2000/svg">
<g clip-path="url(#clip0_6297_1030)">
<rect width="168" height="168" fill="white"/>
<rect width="42" height="42" fill="#5E6561"/>
<rect y="42" width="42" height="42" fill="#486754"/>
<rect y="84" width="42" height="42" fill="#488B63"/>
<rect y="126" width="42" height="42" fill="#A9BC58"/>
<rect x="42" width="42" height="42" fill="#7F8B84"/>
<rect x="42" y="42" width="42" height="42" fill="#628670"/>
<rect x="42" y="84" width="42" height="42" fill="#6BB789"/>
<rect x="42" y="126" width="42" height="42" fill="#BCCF6C"/>
<rect x="84" width="42" height="42" fill="#9DACA2"/>
<rect x="84" y="42" width="42" height="42" fill="#88AA95"/>
<rect x="84" y="84" width="42" height="42" fill="#87D4A6"/>
<rect x="84" y="126" width="42" height="42" fill="#CFE284"/>
<rect x="126" width="42" height="42" fill="#BCC9C1"/>
<rect x="126" y="42" width="42" height="42" fill="#B7D8C4"/>
<rect x="126" y="84" width="42" height="42" fill="#B3F0CB"/>
<rect x="126" y="126" width="42" height="42" fill="#DFEF9B"/>
</g>
<defs>
<clipPath id="clip0_6297_1030">
<rect width="168" height="168" fill="white"/>
</clipPath>
</defs>
</svg>